<mxfile host="app.diagrams.net" modified="2020-11-18T05:56:08.716Z" agent="5.0 (Macintosh; Intel Mac OS X 10_13_6) AppleWebKit/537.36 (KHTML, like Gecko) Chrome/85.0.4183.121 Safari/537.36" etag="nV7qeT9aEM0pjEYJaUVV" version="13.9.3" type="github">
  <diagram id="P6MHLuRTmVlDkCRj13dx" name="第 1 页">
    <mxGraphModel dx="1426" dy="666" grid="1" gridSize="10" guides="1" tooltips="1" connect="1" arrows="1" fold="1" page="1" pageScale="1" pageWidth="827" pageHeight="1169" math="0" shadow="0">
      <root>
        <mxCell id="0" />
        <mxCell id="1" parent="0" />
        <mxCell id="_sziClFjHZsIfzENTsnO-1" value="九色鹿底座" style="rounded=0;whiteSpace=wrap;html=1;fillColor=#dae8fc;strokeColor=#6c8ebf;" vertex="1" parent="1">
          <mxGeometry x="140" y="380" width="330" height="50" as="geometry" />
        </mxCell>
        <mxCell id="_sziClFjHZsIfzENTsnO-5" value="" style="shape=flexArrow;endArrow=classic;html=1;" edge="1" parent="1">
          <mxGeometry width="50" height="50" relative="1" as="geometry">
            <mxPoint x="160" y="270" as="sourcePoint" />
            <mxPoint x="160" y="350" as="targetPoint" />
          </mxGeometry>
        </mxCell>
        <mxCell id="_sziClFjHZsIfzENTsnO-6" value="产品名称、标识&lt;br&gt;资源定义&lt;br&gt;高级功能定义" style="text;html=1;strokeColor=none;fillColor=none;align=center;verticalAlign=middle;whiteSpace=wrap;rounded=0;" vertex="1" parent="1">
          <mxGeometry x="180" y="290" width="90" height="20" as="geometry" />
        </mxCell>
        <mxCell id="_sziClFjHZsIfzENTsnO-9" value="JMQ" style="rounded=0;whiteSpace=wrap;html=1;fillColor=#d5e8d4;strokeColor=#82b366;" vertex="1" parent="1">
          <mxGeometry x="590" y="200" width="60" height="230" as="geometry" />
        </mxCell>
        <mxCell id="_sziClFjHZsIfzENTsnO-10" value="" style="shape=flexArrow;endArrow=classic;html=1;" edge="1" parent="1">
          <mxGeometry width="50" height="50" relative="1" as="geometry">
            <mxPoint x="490" y="404.5" as="sourcePoint" />
            <mxPoint x="570" y="404.5" as="targetPoint" />
          </mxGeometry>
        </mxCell>
        <mxCell id="_sziClFjHZsIfzENTsnO-11" value="底座事件" style="text;html=1;strokeColor=none;fillColor=none;align=center;verticalAlign=middle;whiteSpace=wrap;rounded=0;" vertex="1" parent="1">
          <mxGeometry x="480" y="370" width="90" height="20" as="geometry" />
        </mxCell>
        <mxCell id="_sziClFjHZsIfzENTsnO-12" value="" style="shape=flexArrow;endArrow=classic;html=1;" edge="1" parent="1">
          <mxGeometry width="50" height="50" relative="1" as="geometry">
            <mxPoint x="570" y="230" as="sourcePoint" />
            <mxPoint x="490" y="230" as="targetPoint" />
          </mxGeometry>
        </mxCell>
        <mxCell id="_sziClFjHZsIfzENTsnO-13" value="订阅消费" style="text;html=1;strokeColor=none;fillColor=none;align=center;verticalAlign=middle;whiteSpace=wrap;rounded=0;" vertex="1" parent="1">
          <mxGeometry x="490" y="250" width="90" height="20" as="geometry" />
        </mxCell>
        <mxCell id="_sziClFjHZsIfzENTsnO-15" value="" style="shape=flexArrow;endArrow=classic;html=1;" edge="1" parent="1">
          <mxGeometry width="50" height="50" relative="1" as="geometry">
            <mxPoint x="390" y="270" as="sourcePoint" />
            <mxPoint x="390" y="350" as="targetPoint" />
          </mxGeometry>
        </mxCell>
        <mxCell id="_sziClFjHZsIfzENTsnO-16" value="租户信息&lt;br&gt;权限信息&lt;br&gt;企业信息&lt;br&gt;应用信息&lt;br&gt;资源信息" style="text;html=1;strokeColor=none;fillColor=none;align=center;verticalAlign=middle;whiteSpace=wrap;rounded=0;" vertex="1" parent="1">
          <mxGeometry x="400" y="300" width="90" height="20" as="geometry" />
        </mxCell>
        <mxCell id="_sziClFjHZsIfzENTsnO-22" value="内部子产品" style="rounded=0;whiteSpace=wrap;html=1;fillColor=#f5f5f5;strokeColor=#666666;fontColor=#333333;" vertex="1" parent="1">
          <mxGeometry x="150" y="200" width="320" height="50" as="geometry" />
        </mxCell>
        <mxCell id="_sziClFjHZsIfzENTsnO-29" value="" style="shape=flexArrow;endArrow=block;html=1;" edge="1" parent="1">
          <mxGeometry width="50" height="50" relative="1" as="geometry">
            <mxPoint x="160" y="560" as="sourcePoint" />
            <mxPoint x="160" y="480" as="targetPoint" />
          </mxGeometry>
        </mxCell>
        <mxCell id="_sziClFjHZsIfzENTsnO-30" value="产品名称、标识&lt;br&gt;资源定义&lt;br&gt;高级功能定义&lt;br&gt;接口信息" style="text;html=1;strokeColor=none;fillColor=none;align=center;verticalAlign=middle;whiteSpace=wrap;rounded=0;" vertex="1" parent="1">
          <mxGeometry x="180" y="510" width="90" height="20" as="geometry" />
        </mxCell>
        <mxCell id="_sziClFjHZsIfzENTsnO-32" value="外部子产品" style="rounded=0;whiteSpace=wrap;html=1;fillColor=#f5f5f5;strokeColor=#666666;fontColor=#333333;" vertex="1" parent="1">
          <mxGeometry x="140" y="620" width="330" height="50" as="geometry" />
        </mxCell>
        <mxCell id="_sziClFjHZsIfzENTsnO-34" value="九色鹿网关" style="rounded=0;whiteSpace=wrap;html=1;fillColor=#ffe6cc;strokeColor=#d79b00;" vertex="1" parent="1">
          <mxGeometry x="360" y="510" width="110" height="40" as="geometry" />
        </mxCell>
        <mxCell id="_sziClFjHZsIfzENTsnO-46" value="HTTP" style="text;html=1;strokeColor=none;fillColor=none;align=center;verticalAlign=middle;whiteSpace=wrap;rounded=0;" vertex="1" parent="1">
          <mxGeometry x="370" y="460" width="40" height="20" as="geometry" />
        </mxCell>
        <mxCell id="_sziClFjHZsIfzENTsnO-47" value="HTTP" style="text;html=1;strokeColor=none;fillColor=none;align=center;verticalAlign=middle;whiteSpace=wrap;rounded=0;" vertex="1" parent="1">
          <mxGeometry x="370" y="565" width="40" height="20" as="geometry" />
        </mxCell>
        <mxCell id="_sziClFjHZsIfzENTsnO-52" value="手动录入" style="text;html=1;strokeColor=none;fillColor=none;align=center;verticalAlign=middle;whiteSpace=wrap;rounded=0;" vertex="1" parent="1">
          <mxGeometry x="90" y="300" width="55" height="10" as="geometry" />
        </mxCell>
        <mxCell id="_sziClFjHZsIfzENTsnO-53" value="JSF" style="text;html=1;strokeColor=none;fillColor=none;align=center;verticalAlign=middle;whiteSpace=wrap;rounded=0;" vertex="1" parent="1">
          <mxGeometry x="330" y="300" width="55" height="10" as="geometry" />
        </mxCell>
        <mxCell id="_sziClFjHZsIfzENTsnO-55" value="手动录入" style="text;html=1;strokeColor=none;fillColor=none;align=center;verticalAlign=middle;whiteSpace=wrap;rounded=0;" vertex="1" parent="1">
          <mxGeometry x="90" y="525" width="55" height="10" as="geometry" />
        </mxCell>
        <mxCell id="_sziClFjHZsIfzENTsnO-57" value="" style="shape=flexArrow;endArrow=classic;html=1;" edge="1" parent="1">
          <mxGeometry width="50" height="50" relative="1" as="geometry">
            <mxPoint x="430" y="500" as="sourcePoint" />
            <mxPoint x="430" y="440" as="targetPoint" />
          </mxGeometry>
        </mxCell>
        <mxCell id="_sziClFjHZsIfzENTsnO-58" value="" style="shape=flexArrow;endArrow=classic;html=1;" edge="1" parent="1">
          <mxGeometry width="50" height="50" relative="1" as="geometry">
            <mxPoint x="430" y="615" as="sourcePoint" />
            <mxPoint x="430" y="555" as="targetPoint" />
          </mxGeometry>
        </mxCell>
        <mxCell id="_sziClFjHZsIfzENTsnO-59" value="" style="shape=flexArrow;endArrow=classic;html=1;" edge="1" parent="1">
          <mxGeometry width="50" height="50" relative="1" as="geometry">
            <mxPoint x="320" y="445" as="sourcePoint" />
            <mxPoint x="320" y="610" as="targetPoint" />
          </mxGeometry>
        </mxCell>
        <mxCell id="_sziClFjHZsIfzENTsnO-60" value="HTTP" style="text;html=1;strokeColor=none;fillColor=none;align=center;verticalAlign=middle;whiteSpace=wrap;rounded=0;" vertex="1" parent="1">
          <mxGeometry x="270" y="505" width="40" height="20" as="geometry" />
        </mxCell>
      </root>
    </mxGraphModel>
  </diagram>
</mxfile>
